<?xml version="1.0" standalone="no"?>
<!DOCTYPE svg PUBLIC "-//W3C//DTD SVG 20010904//EN"
 "http://www.w3.org/TR/2001/REC-SVG-20010904/DTD/svg10.dtd">
<svg version="1.0" xmlns="http://www.w3.org/2000/svg"
 width="231.000000pt" height="231.000000pt" viewBox="0 0 231.000000 231.000000"
 preserveAspectRatio="xMidYMid meet">
<metadata>
Created by potrace 1.14, written by Peter Selinger 2001-2017
</metadata>
<g transform="translate(0.000000,231.000000) scale(0.100000,-0.100000)"
fill="#000000" stroke="none">
<path d="M312 2294 c-12 -9 -14 -152 -9 -1089 3 -792 7 -1080 16 -1083 6 -2
11 -10 11 -17 0 -8 14 -34 30 -59 l31 -45 793 -1 c627 0 795 2 803 12 13 16
12 2077 0 2096 -5 6 -16 12 -26 12 -11 0 -32 22 -55 57 -39 63 -44 83 -21 83
18 0 20 26 3 36 -20 13 -1559 11 -1576 -2z m121 -36 c29 0 324 0 657 1 333 1
628 1 657 1 l51 0 40 -58 c23 -34 37 -64 33 -71 -6 -9 -146 -11 -587 -10 -318
1 -624 2 -679 1 -132 -2 -185 5 -192 26 -3 9 -15 24 -25 33 -20 16 -36 95 -17
83 6 -3 34 -6 62 -6z m235 -1205 l2 -1003 -23 -5 c-13 -4 -43 -5 -68 -3 l-44
3 -3 995 c-1 547 0 1000 2 1007 4 8 26 12 68 10 l63 -2 3 -1002z"/>
</g>
</svg>
